<?xml version="1.0" encoding="UTF-8"?>
<svg id="black" xmlns="http://www.w3.org/2000/svg" viewBox="0 0 1920 640">
  <defs>
    <style>
      .cls-1 {
        fill: #be123c;
      }

      .cls-2 {
        fill: #18181b;
      }
    </style>
  </defs>
  <g id="cdx-black-color-group">
    <path class="cls-2" d="m172.69,384.63l268.08-154.61v37.66l-233.32,131.81,233.32,138.18v36.96l-268.08-157.46v-32.53Z"/>
    <path class="cls-2" d="m734.12,471.06c-17.14,69.24-61.13,114.96-136.66,114.96-95.45,0-145.92-66.34-145.92-188.72,0-96.95,45.09-185.94,148.17-185.94,81.54,0,126.62,54.02,133.71,119.95h-36.63c-9.24-46.51-37.04-87.33-97.83-87.33-75.78,0-110.04,65.12-110.04,153.95,0,97.69,38.61,155.5,110,155.5,55.86,0,82.92-33.7,98.59-82.36h36.61Z"/>
    <path class="cls-1" d="m724.77,585.33L894.7,72.1h33.99l-169.91,513.23h-34Z"/>
    <path class="cls-2" d="m1216.73,53.98l-92.09,435.26c-6.55,29.82-14.46,70.82-17.36,89.6h-33c.72-8.62,4.31-31.6,10.7-62.16-23.05,39.42-55.36,68.65-115.67,68.65-73.36,0-106.71-53.21-106.71-134.82,0-97.42,55.61-237.74,180.17-237.74,61.08,0,87.74,35.05,93.56,62.21l46.65-221h33.76Zm-318.15,390.01c0,73.68,32.12,109.43,79.38,109.43,72.45,0,112.38-61.81,135.2-167.41,22.16-102.27-13.18-141.28-76.44-141.28-94.5,0-138.15,121.14-138.15,199.25Z"/>
    <path class="cls-2" d="m1244.87,218.56c27.17,66.67,53.52,128.1,62.13,147.58h.72c20.83-25.17,63.64-73.82,125.84-147.58h41.04l-153.33,175.8,79.08,184.47h-38.77c-27.82-67.96-57.09-135.29-64.97-154.06h-1.43c-17.17,21.52-63.79,76.93-128.67,154.06h-40.37l156.14-184.42-74.79-175.86h37.36Z"/>
    <path class="cls-2" d="m1747.31,420.01l-268.08,154.61v-37.66l233.32-131.81-233.32-138.18v-36.96l268.08,157.46v32.53Z"/>
  </g>
</svg>